<svg xmlns="http://www.w3.org/2000/svg" viewBox="0 0 32 32"><defs><style>.a{fill:#fff;}.b{fill:#000842;}.c{fill:#f6ae2d;}</style></defs><rect class="a" width="32" height="32"/><path class="b" d="M13.93,2.33V3.61H7a.37.37,0,0,0-.23.08L3.22,7a.33.33,0,0,0-.1.25.33.33,0,0,0,.1.23L6.81,10.7a.36.36,0,0,0,.23.09h6.89v3H9.36a.32.32,0,0,0-.32.33V20.6a.33.33,0,0,0,.32.32h4.57v8.81a.34.34,0,0,0,.33.33h2.61a.34.34,0,0,0,.32-.33V20.92h6.9a.31.31,0,0,0,.22-.09l3.59-3.26a.35.35,0,0,0,.1-.24.31.31,0,0,0-.1-.24l-3.59-3.26a.31.31,0,0,0-.22-.09h-6.9v-3h4.57a.35.35,0,0,0,.33-.33V3.94a.35.35,0,0,0-.33-.33H17.19V2.33A.34.34,0,0,0,16.87,2H14.26A.33.33,0,0,0,13.93,2.33Z"/><polygon class="c" points="7.16 4.26 21.43 4.26 21.43 10.13 7.17 10.13 3.94 7.2 7.16 4.26"/><polygon class="c" points="9.69 14.4 23.96 14.4 27.18 17.33 23.95 20.27 9.69 20.27 9.69 14.4"/></svg>